<mxfile host="www.draw.io" modified="2023-04-12T08:51:09.177Z" agent="Mozilla/5.0 (Windows NT 10.0; Win64; x64) AppleWebKit/537.36 (KHTML, like Gecko) Chrome/112.0.0.0 Safari/537.36 Edg/112.0.1722.34" etag="9gDzMt6b5jsDemmhvQJc" version="21.1.6" type="device">
  <diagram id="C5RBs43oDa-KdzZeNtuy" name="Page-1">
    <mxGraphModel dx="1541" dy="1885" grid="1" gridSize="10" guides="1" tooltips="1" connect="1" arrows="1" fold="1" page="1" pageScale="1" pageWidth="827" pageHeight="1169" math="0" shadow="0">
      <root>
        <mxCell id="WIyWlLk6GJQsqaUBKTNV-0" />
        <mxCell id="WIyWlLk6GJQsqaUBKTNV-1" parent="WIyWlLk6GJQsqaUBKTNV-0" />
        <mxCell id="pCkTTkV0WS3hA6v8b99D-7" style="edgeStyle=orthogonalEdgeStyle;rounded=0;orthogonalLoop=1;jettySize=auto;html=1;entryX=0.5;entryY=0;entryDx=0;entryDy=0;" parent="WIyWlLk6GJQsqaUBKTNV-1" source="WIyWlLk6GJQsqaUBKTNV-3" target="UMCxQoQrcHalShrNQ6Z5-0" edge="1">
          <mxGeometry relative="1" as="geometry" />
        </mxCell>
        <mxCell id="WIyWlLk6GJQsqaUBKTNV-3" value="&lt;b&gt;Login&lt;/b&gt;" style="rounded=1;whiteSpace=wrap;html=1;fontSize=12;glass=0;strokeWidth=1;shadow=0;" parent="WIyWlLk6GJQsqaUBKTNV-1" vertex="1">
          <mxGeometry x="185" y="80" width="70" height="40" as="geometry" />
        </mxCell>
        <mxCell id="pCkTTkV0WS3hA6v8b99D-8" style="edgeStyle=orthogonalEdgeStyle;rounded=0;orthogonalLoop=1;jettySize=auto;html=1;entryX=0.5;entryY=0;entryDx=0;entryDy=0;" parent="WIyWlLk6GJQsqaUBKTNV-1" source="UMCxQoQrcHalShrNQ6Z5-0" target="pCkTTkV0WS3hA6v8b99D-0" edge="1">
          <mxGeometry relative="1" as="geometry" />
        </mxCell>
        <mxCell id="UMCxQoQrcHalShrNQ6Z5-0" value="Pilih Menu" style="rounded=0;whiteSpace=wrap;html=1;" parent="WIyWlLk6GJQsqaUBKTNV-1" vertex="1">
          <mxGeometry x="160" y="160" width="120" height="40" as="geometry" />
        </mxCell>
        <mxCell id="pCkTTkV0WS3hA6v8b99D-9" style="edgeStyle=orthogonalEdgeStyle;rounded=0;orthogonalLoop=1;jettySize=auto;html=1;entryX=0.5;entryY=0;entryDx=0;entryDy=0;" parent="WIyWlLk6GJQsqaUBKTNV-1" source="pCkTTkV0WS3hA6v8b99D-0" target="pCkTTkV0WS3hA6v8b99D-1" edge="1">
          <mxGeometry relative="1" as="geometry" />
        </mxCell>
        <mxCell id="pCkTTkV0WS3hA6v8b99D-16" style="edgeStyle=orthogonalEdgeStyle;rounded=0;orthogonalLoop=1;jettySize=auto;html=1;" parent="WIyWlLk6GJQsqaUBKTNV-1" source="pCkTTkV0WS3hA6v8b99D-0" target="pCkTTkV0WS3hA6v8b99D-18" edge="1">
          <mxGeometry relative="1" as="geometry">
            <mxPoint x="360" y="270" as="targetPoint" />
          </mxGeometry>
        </mxCell>
        <mxCell id="pCkTTkV0WS3hA6v8b99D-0" value="&lt;b&gt;Dashboard&lt;/b&gt;" style="rhombus;whiteSpace=wrap;html=1;" parent="WIyWlLk6GJQsqaUBKTNV-1" vertex="1">
          <mxGeometry x="130" y="230" width="180" height="80" as="geometry" />
        </mxCell>
        <mxCell id="pCkTTkV0WS3hA6v8b99D-10" style="edgeStyle=orthogonalEdgeStyle;rounded=0;orthogonalLoop=1;jettySize=auto;html=1;" parent="WIyWlLk6GJQsqaUBKTNV-1" source="pCkTTkV0WS3hA6v8b99D-1" target="pCkTTkV0WS3hA6v8b99D-2" edge="1">
          <mxGeometry relative="1" as="geometry" />
        </mxCell>
        <mxCell id="pCkTTkV0WS3hA6v8b99D-20" style="edgeStyle=orthogonalEdgeStyle;rounded=0;orthogonalLoop=1;jettySize=auto;html=1;entryX=0;entryY=0.5;entryDx=0;entryDy=0;" parent="WIyWlLk6GJQsqaUBKTNV-1" source="pCkTTkV0WS3hA6v8b99D-1" target="pCkTTkV0WS3hA6v8b99D-22" edge="1">
          <mxGeometry relative="1" as="geometry">
            <mxPoint x="350" y="380" as="targetPoint" />
          </mxGeometry>
        </mxCell>
        <mxCell id="pCkTTkV0WS3hA6v8b99D-1" value="&lt;b&gt;Surat Masuk&lt;/b&gt;" style="rhombus;whiteSpace=wrap;html=1;" parent="WIyWlLk6GJQsqaUBKTNV-1" vertex="1">
          <mxGeometry x="130" y="340" width="180" height="80" as="geometry" />
        </mxCell>
        <mxCell id="pCkTTkV0WS3hA6v8b99D-11" style="edgeStyle=orthogonalEdgeStyle;rounded=0;orthogonalLoop=1;jettySize=auto;html=1;entryX=0.5;entryY=0;entryDx=0;entryDy=0;" parent="WIyWlLk6GJQsqaUBKTNV-1" source="pCkTTkV0WS3hA6v8b99D-2" target="pCkTTkV0WS3hA6v8b99D-3" edge="1">
          <mxGeometry relative="1" as="geometry">
            <mxPoint x="220" y="580" as="targetPoint" />
          </mxGeometry>
        </mxCell>
        <mxCell id="pCkTTkV0WS3hA6v8b99D-34" style="edgeStyle=orthogonalEdgeStyle;rounded=0;orthogonalLoop=1;jettySize=auto;html=1;entryX=0;entryY=0.5;entryDx=0;entryDy=0;" parent="WIyWlLk6GJQsqaUBKTNV-1" source="pCkTTkV0WS3hA6v8b99D-2" target="pCkTTkV0WS3hA6v8b99D-33" edge="1">
          <mxGeometry relative="1" as="geometry" />
        </mxCell>
        <mxCell id="pCkTTkV0WS3hA6v8b99D-2" value="&lt;b&gt;&amp;nbsp;DisposisI&lt;/b&gt;" style="rhombus;whiteSpace=wrap;html=1;" parent="WIyWlLk6GJQsqaUBKTNV-1" vertex="1">
          <mxGeometry x="130" y="460" width="180" height="80" as="geometry" />
        </mxCell>
        <mxCell id="pCkTTkV0WS3hA6v8b99D-13" style="edgeStyle=orthogonalEdgeStyle;rounded=0;orthogonalLoop=1;jettySize=auto;html=1;entryX=0.5;entryY=0;entryDx=0;entryDy=0;" parent="WIyWlLk6GJQsqaUBKTNV-1" source="pCkTTkV0WS3hA6v8b99D-3" target="pCkTTkV0WS3hA6v8b99D-4" edge="1">
          <mxGeometry relative="1" as="geometry" />
        </mxCell>
        <mxCell id="pCkTTkV0WS3hA6v8b99D-39" style="edgeStyle=orthogonalEdgeStyle;rounded=0;orthogonalLoop=1;jettySize=auto;html=1;entryX=0;entryY=0.5;entryDx=0;entryDy=0;" parent="WIyWlLk6GJQsqaUBKTNV-1" source="pCkTTkV0WS3hA6v8b99D-3" target="pCkTTkV0WS3hA6v8b99D-35" edge="1">
          <mxGeometry relative="1" as="geometry" />
        </mxCell>
        <mxCell id="pCkTTkV0WS3hA6v8b99D-3" value="&lt;b&gt;Tracking&lt;/b&gt;" style="rhombus;whiteSpace=wrap;html=1;" parent="WIyWlLk6GJQsqaUBKTNV-1" vertex="1">
          <mxGeometry x="135" y="585" width="170" height="80" as="geometry" />
        </mxCell>
        <mxCell id="pCkTTkV0WS3hA6v8b99D-14" style="edgeStyle=orthogonalEdgeStyle;rounded=0;orthogonalLoop=1;jettySize=auto;html=1;entryX=0.5;entryY=0;entryDx=0;entryDy=0;" parent="WIyWlLk6GJQsqaUBKTNV-1" source="pCkTTkV0WS3hA6v8b99D-4" target="pCkTTkV0WS3hA6v8b99D-5" edge="1">
          <mxGeometry relative="1" as="geometry" />
        </mxCell>
        <mxCell id="pCkTTkV0WS3hA6v8b99D-51" style="edgeStyle=orthogonalEdgeStyle;rounded=0;orthogonalLoop=1;jettySize=auto;html=1;entryX=0;entryY=0.5;entryDx=0;entryDy=0;" parent="WIyWlLk6GJQsqaUBKTNV-1" source="pCkTTkV0WS3hA6v8b99D-4" target="pCkTTkV0WS3hA6v8b99D-45" edge="1">
          <mxGeometry relative="1" as="geometry" />
        </mxCell>
        <mxCell id="pCkTTkV0WS3hA6v8b99D-4" value="&lt;b&gt;Cari Surat&lt;/b&gt;" style="rhombus;whiteSpace=wrap;html=1;" parent="WIyWlLk6GJQsqaUBKTNV-1" vertex="1">
          <mxGeometry x="140" y="790" width="160" height="80" as="geometry" />
        </mxCell>
        <mxCell id="pCkTTkV0WS3hA6v8b99D-15" style="edgeStyle=orthogonalEdgeStyle;rounded=0;orthogonalLoop=1;jettySize=auto;html=1;entryX=0.5;entryY=0;entryDx=0;entryDy=0;" parent="WIyWlLk6GJQsqaUBKTNV-1" source="pCkTTkV0WS3hA6v8b99D-5" target="pCkTTkV0WS3hA6v8b99D-6" edge="1">
          <mxGeometry relative="1" as="geometry">
            <mxPoint x="220" y="940" as="targetPoint" />
          </mxGeometry>
        </mxCell>
        <mxCell id="pCkTTkV0WS3hA6v8b99D-64" style="edgeStyle=orthogonalEdgeStyle;rounded=0;orthogonalLoop=1;jettySize=auto;html=1;" parent="WIyWlLk6GJQsqaUBKTNV-1" source="pCkTTkV0WS3hA6v8b99D-5" target="pCkTTkV0WS3hA6v8b99D-56" edge="1">
          <mxGeometry relative="1" as="geometry" />
        </mxCell>
        <mxCell id="pCkTTkV0WS3hA6v8b99D-5" value="&lt;b&gt;Ubah Profil&lt;/b&gt;" style="rhombus;whiteSpace=wrap;html=1;" parent="WIyWlLk6GJQsqaUBKTNV-1" vertex="1">
          <mxGeometry x="138" y="920" width="164" height="80" as="geometry" />
        </mxCell>
        <mxCell id="pCkTTkV0WS3hA6v8b99D-73" style="edgeStyle=orthogonalEdgeStyle;rounded=0;orthogonalLoop=1;jettySize=auto;html=1;" parent="WIyWlLk6GJQsqaUBKTNV-1" source="pCkTTkV0WS3hA6v8b99D-6" edge="1">
          <mxGeometry relative="1" as="geometry">
            <mxPoint x="350" y="1214" as="targetPoint" />
          </mxGeometry>
        </mxCell>
        <mxCell id="pCkTTkV0WS3hA6v8b99D-79" style="edgeStyle=orthogonalEdgeStyle;rounded=0;orthogonalLoop=1;jettySize=auto;html=1;" parent="WIyWlLk6GJQsqaUBKTNV-1" source="pCkTTkV0WS3hA6v8b99D-6" edge="1">
          <mxGeometry relative="1" as="geometry">
            <mxPoint x="221.25" y="1350" as="targetPoint" />
          </mxGeometry>
        </mxCell>
        <mxCell id="pCkTTkV0WS3hA6v8b99D-6" value="&lt;b&gt;Tambah Surat &lt;br&gt;Masuk/Surat Keluar&lt;/b&gt;" style="rhombus;whiteSpace=wrap;html=1;" parent="WIyWlLk6GJQsqaUBKTNV-1" vertex="1">
          <mxGeometry x="135" y="1169" width="172.5" height="90" as="geometry" />
        </mxCell>
        <mxCell id="pCkTTkV0WS3hA6v8b99D-85" style="edgeStyle=orthogonalEdgeStyle;rounded=0;orthogonalLoop=1;jettySize=auto;html=1;" parent="WIyWlLk6GJQsqaUBKTNV-1" source="pCkTTkV0WS3hA6v8b99D-18" target="pCkTTkV0WS3hA6v8b99D-82" edge="1">
          <mxGeometry relative="1" as="geometry">
            <mxPoint x="1250" y="1480" as="targetPoint" />
            <Array as="points">
              <mxPoint x="1130" y="270" />
              <mxPoint x="1130" y="1470" />
            </Array>
          </mxGeometry>
        </mxCell>
        <mxCell id="pCkTTkV0WS3hA6v8b99D-18" value="Tabel&amp;nbsp; Surat Masuk, Surat Keluar, Surat Disposisi" style="shape=parallelogram;perimeter=parallelogramPerimeter;whiteSpace=wrap;html=1;fixedSize=1;" parent="WIyWlLk6GJQsqaUBKTNV-1" vertex="1">
          <mxGeometry x="354" y="240" width="166" height="60" as="geometry" />
        </mxCell>
        <mxCell id="pCkTTkV0WS3hA6v8b99D-27" style="edgeStyle=orthogonalEdgeStyle;rounded=0;orthogonalLoop=1;jettySize=auto;html=1;" parent="WIyWlLk6GJQsqaUBKTNV-1" source="pCkTTkV0WS3hA6v8b99D-22" target="pCkTTkV0WS3hA6v8b99D-23" edge="1">
          <mxGeometry relative="1" as="geometry" />
        </mxCell>
        <mxCell id="pCkTTkV0WS3hA6v8b99D-22" value="Surat Masuk" style="shape=parallelogram;perimeter=parallelogramPerimeter;whiteSpace=wrap;html=1;fixedSize=1;" parent="WIyWlLk6GJQsqaUBKTNV-1" vertex="1">
          <mxGeometry x="350" y="350" width="166" height="60" as="geometry" />
        </mxCell>
        <mxCell id="pCkTTkV0WS3hA6v8b99D-31" style="edgeStyle=orthogonalEdgeStyle;rounded=0;orthogonalLoop=1;jettySize=auto;html=1;entryX=0;entryY=0.333;entryDx=0;entryDy=0;entryPerimeter=0;" parent="WIyWlLk6GJQsqaUBKTNV-1" source="pCkTTkV0WS3hA6v8b99D-23" target="pCkTTkV0WS3hA6v8b99D-26" edge="1">
          <mxGeometry relative="1" as="geometry">
            <mxPoint x="720" y="380" as="targetPoint" />
          </mxGeometry>
        </mxCell>
        <mxCell id="pCkTTkV0WS3hA6v8b99D-23" value="Aksi Surat" style="rounded=0;whiteSpace=wrap;html=1;" parent="WIyWlLk6GJQsqaUBKTNV-1" vertex="1">
          <mxGeometry x="560" y="360" width="120" height="40" as="geometry" />
        </mxCell>
        <mxCell id="pCkTTkV0WS3hA6v8b99D-26" value="" style="verticalLabelPosition=bottom;verticalAlign=top;html=1;shape=offPageConnector;rounded=0;size=0.5;" parent="WIyWlLk6GJQsqaUBKTNV-1" vertex="1">
          <mxGeometry x="730" y="360" width="60" height="60" as="geometry" />
        </mxCell>
        <mxCell id="pCkTTkV0WS3hA6v8b99D-32" value="F" style="text;html=1;strokeColor=none;fillColor=none;align=center;verticalAlign=middle;whiteSpace=wrap;rounded=0;" parent="WIyWlLk6GJQsqaUBKTNV-1" vertex="1">
          <mxGeometry x="730" y="365" width="60" height="30" as="geometry" />
        </mxCell>
        <mxCell id="pCkTTkV0WS3hA6v8b99D-33" value="Surat Disposisi" style="shape=parallelogram;perimeter=parallelogramPerimeter;whiteSpace=wrap;html=1;fixedSize=1;" parent="WIyWlLk6GJQsqaUBKTNV-1" vertex="1">
          <mxGeometry x="340" y="470" width="166" height="60" as="geometry" />
        </mxCell>
        <mxCell id="pCkTTkV0WS3hA6v8b99D-40" style="edgeStyle=orthogonalEdgeStyle;rounded=0;orthogonalLoop=1;jettySize=auto;html=1;" parent="WIyWlLk6GJQsqaUBKTNV-1" source="pCkTTkV0WS3hA6v8b99D-35" edge="1">
          <mxGeometry relative="1" as="geometry">
            <mxPoint x="530" y="625" as="targetPoint" />
          </mxGeometry>
        </mxCell>
        <mxCell id="pCkTTkV0WS3hA6v8b99D-35" value="Input Nomor Surat" style="shape=parallelogram;perimeter=parallelogramPerimeter;whiteSpace=wrap;html=1;fixedSize=1;" parent="WIyWlLk6GJQsqaUBKTNV-1" vertex="1">
          <mxGeometry x="340" y="595" width="156" height="60" as="geometry" />
        </mxCell>
        <mxCell id="pCkTTkV0WS3hA6v8b99D-41" style="edgeStyle=orthogonalEdgeStyle;rounded=0;orthogonalLoop=1;jettySize=auto;html=1;entryX=0;entryY=0.5;entryDx=0;entryDy=0;" parent="WIyWlLk6GJQsqaUBKTNV-1" source="pCkTTkV0WS3hA6v8b99D-36" target="pCkTTkV0WS3hA6v8b99D-37" edge="1">
          <mxGeometry relative="1" as="geometry" />
        </mxCell>
        <mxCell id="pCkTTkV0WS3hA6v8b99D-42" style="edgeStyle=orthogonalEdgeStyle;rounded=0;orthogonalLoop=1;jettySize=auto;html=1;entryX=1;entryY=0.5;entryDx=0;entryDy=0;" parent="WIyWlLk6GJQsqaUBKTNV-1" source="pCkTTkV0WS3hA6v8b99D-36" target="pCkTTkV0WS3hA6v8b99D-38" edge="1">
          <mxGeometry relative="1" as="geometry">
            <mxPoint x="580" y="740" as="targetPoint" />
            <Array as="points">
              <mxPoint x="580" y="730" />
            </Array>
          </mxGeometry>
        </mxCell>
        <mxCell id="pCkTTkV0WS3hA6v8b99D-36" value="Data Surat &lt;br&gt;Ada?" style="rhombus;whiteSpace=wrap;html=1;" parent="WIyWlLk6GJQsqaUBKTNV-1" vertex="1">
          <mxGeometry x="530" y="585" width="100" height="80" as="geometry" />
        </mxCell>
        <mxCell id="pCkTTkV0WS3hA6v8b99D-37" value="Hasil Tracking" style="shape=parallelogram;perimeter=parallelogramPerimeter;whiteSpace=wrap;html=1;fixedSize=1;" parent="WIyWlLk6GJQsqaUBKTNV-1" vertex="1">
          <mxGeometry x="671" y="596" width="166" height="60" as="geometry" />
        </mxCell>
        <mxCell id="pCkTTkV0WS3hA6v8b99D-92" style="edgeStyle=orthogonalEdgeStyle;rounded=0;orthogonalLoop=1;jettySize=auto;html=1;entryX=0.5;entryY=0;entryDx=0;entryDy=0;" parent="WIyWlLk6GJQsqaUBKTNV-1" source="pCkTTkV0WS3hA6v8b99D-38" target="pCkTTkV0WS3hA6v8b99D-45" edge="1">
          <mxGeometry relative="1" as="geometry">
            <Array as="points">
              <mxPoint x="403" y="760" />
              <mxPoint x="403" y="760" />
            </Array>
          </mxGeometry>
        </mxCell>
        <mxCell id="pCkTTkV0WS3hA6v8b99D-38" value="Surat Tidak Ditemukan" style="shape=parallelogram;perimeter=parallelogramPerimeter;whiteSpace=wrap;html=1;fixedSize=1;" parent="WIyWlLk6GJQsqaUBKTNV-1" vertex="1">
          <mxGeometry x="330" y="700" width="151" height="60" as="geometry" />
        </mxCell>
        <mxCell id="pCkTTkV0WS3hA6v8b99D-48" style="edgeStyle=orthogonalEdgeStyle;rounded=0;orthogonalLoop=1;jettySize=auto;html=1;entryX=0;entryY=0.5;entryDx=0;entryDy=0;" parent="WIyWlLk6GJQsqaUBKTNV-1" source="pCkTTkV0WS3hA6v8b99D-45" target="pCkTTkV0WS3hA6v8b99D-46" edge="1">
          <mxGeometry relative="1" as="geometry" />
        </mxCell>
        <mxCell id="pCkTTkV0WS3hA6v8b99D-45" value="Input informasi Surat" style="shape=parallelogram;perimeter=parallelogramPerimeter;whiteSpace=wrap;html=1;fixedSize=1;" parent="WIyWlLk6GJQsqaUBKTNV-1" vertex="1">
          <mxGeometry x="330" y="800" width="146" height="60" as="geometry" />
        </mxCell>
        <mxCell id="pCkTTkV0WS3hA6v8b99D-49" style="edgeStyle=orthogonalEdgeStyle;rounded=0;orthogonalLoop=1;jettySize=auto;html=1;entryX=0;entryY=0.5;entryDx=0;entryDy=0;" parent="WIyWlLk6GJQsqaUBKTNV-1" source="pCkTTkV0WS3hA6v8b99D-46" target="pCkTTkV0WS3hA6v8b99D-47" edge="1">
          <mxGeometry relative="1" as="geometry" />
        </mxCell>
        <mxCell id="pCkTTkV0WS3hA6v8b99D-46" value="Data Surat &lt;br&gt;Ada?" style="rhombus;whiteSpace=wrap;html=1;" parent="WIyWlLk6GJQsqaUBKTNV-1" vertex="1">
          <mxGeometry x="530" y="790" width="100" height="80" as="geometry" />
        </mxCell>
        <mxCell id="pCkTTkV0WS3hA6v8b99D-47" value="Hasil Pencarian Surat" style="shape=parallelogram;perimeter=parallelogramPerimeter;whiteSpace=wrap;html=1;fixedSize=1;" parent="WIyWlLk6GJQsqaUBKTNV-1" vertex="1">
          <mxGeometry x="677" y="800" width="166" height="60" as="geometry" />
        </mxCell>
        <mxCell id="pCkTTkV0WS3hA6v8b99D-55" value="" style="endArrow=classic;html=1;rounded=0;" parent="WIyWlLk6GJQsqaUBKTNV-1" edge="1">
          <mxGeometry width="50" height="50" relative="1" as="geometry">
            <mxPoint x="406" y="700" as="sourcePoint" />
            <mxPoint x="406" y="650" as="targetPoint" />
          </mxGeometry>
        </mxCell>
        <mxCell id="pCkTTkV0WS3hA6v8b99D-65" style="edgeStyle=orthogonalEdgeStyle;rounded=0;orthogonalLoop=1;jettySize=auto;html=1;entryX=0;entryY=0.5;entryDx=0;entryDy=0;" parent="WIyWlLk6GJQsqaUBKTNV-1" source="pCkTTkV0WS3hA6v8b99D-56" target="pCkTTkV0WS3hA6v8b99D-57" edge="1">
          <mxGeometry relative="1" as="geometry" />
        </mxCell>
        <mxCell id="pCkTTkV0WS3hA6v8b99D-56" value="Isi Data" style="shape=parallelogram;perimeter=parallelogramPerimeter;whiteSpace=wrap;html=1;fixedSize=1;" parent="WIyWlLk6GJQsqaUBKTNV-1" vertex="1">
          <mxGeometry x="330" y="930" width="146" height="60" as="geometry" />
        </mxCell>
        <mxCell id="pCkTTkV0WS3hA6v8b99D-66" style="edgeStyle=orthogonalEdgeStyle;rounded=0;orthogonalLoop=1;jettySize=auto;html=1;" parent="WIyWlLk6GJQsqaUBKTNV-1" source="pCkTTkV0WS3hA6v8b99D-57" target="pCkTTkV0WS3hA6v8b99D-58" edge="1">
          <mxGeometry relative="1" as="geometry" />
        </mxCell>
        <mxCell id="pCkTTkV0WS3hA6v8b99D-57" value="Upload Foto" style="rounded=0;whiteSpace=wrap;html=1;" parent="WIyWlLk6GJQsqaUBKTNV-1" vertex="1">
          <mxGeometry x="530" y="940" width="120" height="40" as="geometry" />
        </mxCell>
        <mxCell id="pCkTTkV0WS3hA6v8b99D-68" style="edgeStyle=orthogonalEdgeStyle;rounded=0;orthogonalLoop=1;jettySize=auto;html=1;entryX=0;entryY=0.5;entryDx=0;entryDy=0;" parent="WIyWlLk6GJQsqaUBKTNV-1" source="pCkTTkV0WS3hA6v8b99D-58" target="pCkTTkV0WS3hA6v8b99D-59" edge="1">
          <mxGeometry relative="1" as="geometry" />
        </mxCell>
        <mxCell id="pCkTTkV0WS3hA6v8b99D-71" style="edgeStyle=orthogonalEdgeStyle;rounded=0;orthogonalLoop=1;jettySize=auto;html=1;entryX=0.5;entryY=1;entryDx=0;entryDy=0;entryPerimeter=0;" parent="WIyWlLk6GJQsqaUBKTNV-1" source="pCkTTkV0WS3hA6v8b99D-58" target="pCkTTkV0WS3hA6v8b99D-60" edge="1">
          <mxGeometry relative="1" as="geometry" />
        </mxCell>
        <mxCell id="pCkTTkV0WS3hA6v8b99D-58" value="Data Valid" style="rhombus;whiteSpace=wrap;html=1;" parent="WIyWlLk6GJQsqaUBKTNV-1" vertex="1">
          <mxGeometry x="700" y="920" width="100" height="80" as="geometry" />
        </mxCell>
        <mxCell id="pCkTTkV0WS3hA6v8b99D-59" value="Profil Terubah" style="shape=parallelogram;perimeter=parallelogramPerimeter;whiteSpace=wrap;html=1;fixedSize=1;" parent="WIyWlLk6GJQsqaUBKTNV-1" vertex="1">
          <mxGeometry x="850" y="930" width="146" height="60" as="geometry" />
        </mxCell>
        <mxCell id="pCkTTkV0WS3hA6v8b99D-60" value="" style="shape=cylinder3;whiteSpace=wrap;html=1;boundedLbl=1;backgroundOutline=1;size=15;lid=0;rotation=90;" parent="WIyWlLk6GJQsqaUBKTNV-1" vertex="1">
          <mxGeometry x="810" y="1006" width="70" height="140" as="geometry" />
        </mxCell>
        <mxCell id="pCkTTkV0WS3hA6v8b99D-63" style="edgeStyle=orthogonalEdgeStyle;rounded=0;orthogonalLoop=1;jettySize=auto;html=1;entryX=0.5;entryY=0;entryDx=0;entryDy=0;" parent="WIyWlLk6GJQsqaUBKTNV-1" target="pCkTTkV0WS3hA6v8b99D-56" edge="1">
          <mxGeometry relative="1" as="geometry">
            <mxPoint x="390" y="920" as="targetPoint" />
            <mxPoint x="900" y="1080" as="sourcePoint" />
            <Array as="points">
              <mxPoint x="1060" y="1076" />
              <mxPoint x="1060" y="880" />
              <mxPoint x="403" y="880" />
            </Array>
          </mxGeometry>
        </mxCell>
        <mxCell id="pCkTTkV0WS3hA6v8b99D-61" value="Menampilkan&amp;nbsp;&lt;br&gt;Pesan Gagal&lt;br&gt;Ubah Profill" style="text;html=1;strokeColor=none;fillColor=none;align=center;verticalAlign=middle;whiteSpace=wrap;rounded=0;" parent="WIyWlLk6GJQsqaUBKTNV-1" vertex="1">
          <mxGeometry x="785" y="1061" width="120" height="30" as="geometry" />
        </mxCell>
        <mxCell id="pCkTTkV0WS3hA6v8b99D-77" style="edgeStyle=orthogonalEdgeStyle;rounded=0;orthogonalLoop=1;jettySize=auto;html=1;" parent="WIyWlLk6GJQsqaUBKTNV-1" source="pCkTTkV0WS3hA6v8b99D-72" target="pCkTTkV0WS3hA6v8b99D-74" edge="1">
          <mxGeometry relative="1" as="geometry">
            <mxPoint x="530" y="1210" as="targetPoint" />
          </mxGeometry>
        </mxCell>
        <mxCell id="pCkTTkV0WS3hA6v8b99D-72" value="Input Dta &lt;br&gt;Surat Masuk/&lt;br&gt;Surat Keluar" style="shape=parallelogram;perimeter=parallelogramPerimeter;whiteSpace=wrap;html=1;fixedSize=1;" parent="WIyWlLk6GJQsqaUBKTNV-1" vertex="1">
          <mxGeometry x="345" y="1180" width="160" height="60" as="geometry" />
        </mxCell>
        <mxCell id="pCkTTkV0WS3hA6v8b99D-76" style="edgeStyle=orthogonalEdgeStyle;rounded=0;orthogonalLoop=1;jettySize=auto;html=1;entryX=0.5;entryY=1;entryDx=0;entryDy=0;" parent="WIyWlLk6GJQsqaUBKTNV-1" source="pCkTTkV0WS3hA6v8b99D-74" target="pCkTTkV0WS3hA6v8b99D-72" edge="1">
          <mxGeometry relative="1" as="geometry">
            <mxPoint x="570" y="1384.2857142857142" as="targetPoint" />
            <Array as="points">
              <mxPoint x="600" y="1340" />
              <mxPoint x="425" y="1340" />
            </Array>
          </mxGeometry>
        </mxCell>
        <mxCell id="pCkTTkV0WS3hA6v8b99D-78" style="edgeStyle=orthogonalEdgeStyle;rounded=0;orthogonalLoop=1;jettySize=auto;html=1;entryX=0;entryY=0.5;entryDx=0;entryDy=0;" parent="WIyWlLk6GJQsqaUBKTNV-1" source="pCkTTkV0WS3hA6v8b99D-74" target="pCkTTkV0WS3hA6v8b99D-75" edge="1">
          <mxGeometry relative="1" as="geometry" />
        </mxCell>
        <mxCell id="pCkTTkV0WS3hA6v8b99D-74" value="Data Lengkap?" style="rhombus;whiteSpace=wrap;html=1;" parent="WIyWlLk6GJQsqaUBKTNV-1" vertex="1">
          <mxGeometry x="550" y="1171" width="100" height="80" as="geometry" />
        </mxCell>
        <mxCell id="pCkTTkV0WS3hA6v8b99D-75" value="Surat Terkirim" style="rounded=0;whiteSpace=wrap;html=1;" parent="WIyWlLk6GJQsqaUBKTNV-1" vertex="1">
          <mxGeometry x="694" y="1191" width="120" height="40" as="geometry" />
        </mxCell>
        <mxCell id="pCkTTkV0WS3hA6v8b99D-83" style="edgeStyle=orthogonalEdgeStyle;rounded=0;orthogonalLoop=1;jettySize=auto;html=1;entryX=0.5;entryY=0;entryDx=0;entryDy=0;entryPerimeter=0;" parent="WIyWlLk6GJQsqaUBKTNV-1" source="pCkTTkV0WS3hA6v8b99D-80" target="pCkTTkV0WS3hA6v8b99D-82" edge="1">
          <mxGeometry relative="1" as="geometry" />
        </mxCell>
        <mxCell id="pCkTTkV0WS3hA6v8b99D-101" style="edgeStyle=orthogonalEdgeStyle;rounded=0;orthogonalLoop=1;jettySize=auto;html=1;entryX=0;entryY=0.5;entryDx=0;entryDy=0;" parent="WIyWlLk6GJQsqaUBKTNV-1" source="pCkTTkV0WS3hA6v8b99D-80" target="UMCxQoQrcHalShrNQ6Z5-0" edge="1">
          <mxGeometry relative="1" as="geometry">
            <mxPoint x="80" y="151.42857142857142" as="targetPoint" />
            <Array as="points">
              <mxPoint x="20" y="1370" />
              <mxPoint x="20" y="180" />
            </Array>
          </mxGeometry>
        </mxCell>
        <mxCell id="pCkTTkV0WS3hA6v8b99D-80" value="&lt;b&gt;Logout&lt;/b&gt;" style="rounded=1;whiteSpace=wrap;html=1;fontSize=12;glass=0;strokeWidth=1;shadow=0;" parent="WIyWlLk6GJQsqaUBKTNV-1" vertex="1">
          <mxGeometry x="186.25" y="1350" width="70" height="40" as="geometry" />
        </mxCell>
        <mxCell id="pCkTTkV0WS3hA6v8b99D-82" value="Selesai" style="strokeWidth=2;html=1;shape=mxgraph.flowchart.terminator;whiteSpace=wrap;" parent="WIyWlLk6GJQsqaUBKTNV-1" vertex="1">
          <mxGeometry x="145" y="1440" width="150" height="60" as="geometry" />
        </mxCell>
        <mxCell id="pCkTTkV0WS3hA6v8b99D-86" value="" style="endArrow=none;html=1;rounded=0;exitX=1;exitY=0.5;exitDx=0;exitDy=0;" parent="WIyWlLk6GJQsqaUBKTNV-1" source="pCkTTkV0WS3hA6v8b99D-75" edge="1">
          <mxGeometry width="50" height="50" relative="1" as="geometry">
            <mxPoint x="790" y="1300" as="sourcePoint" />
            <mxPoint x="1130" y="1211" as="targetPoint" />
          </mxGeometry>
        </mxCell>
        <mxCell id="pCkTTkV0WS3hA6v8b99D-87" value="" style="endArrow=none;html=1;rounded=0;exitX=1;exitY=0.5;exitDx=0;exitDy=0;" parent="WIyWlLk6GJQsqaUBKTNV-1" source="pCkTTkV0WS3hA6v8b99D-59" edge="1">
          <mxGeometry width="50" height="50" relative="1" as="geometry">
            <mxPoint x="750" y="1270" as="sourcePoint" />
            <mxPoint x="1130" y="960" as="targetPoint" />
          </mxGeometry>
        </mxCell>
        <mxCell id="pCkTTkV0WS3hA6v8b99D-88" value="" style="endArrow=none;html=1;rounded=0;exitX=1;exitY=0.5;exitDx=0;exitDy=0;" parent="WIyWlLk6GJQsqaUBKTNV-1" source="pCkTTkV0WS3hA6v8b99D-47" edge="1">
          <mxGeometry width="50" height="50" relative="1" as="geometry">
            <mxPoint x="750" y="1270" as="sourcePoint" />
            <mxPoint x="1130" y="830" as="targetPoint" />
          </mxGeometry>
        </mxCell>
        <mxCell id="pCkTTkV0WS3hA6v8b99D-89" value="" style="endArrow=none;html=1;rounded=0;exitX=1;exitY=0.5;exitDx=0;exitDy=0;" parent="WIyWlLk6GJQsqaUBKTNV-1" source="pCkTTkV0WS3hA6v8b99D-37" edge="1">
          <mxGeometry width="50" height="50" relative="1" as="geometry">
            <mxPoint x="880" y="670" as="sourcePoint" />
            <mxPoint x="1130" y="626" as="targetPoint" />
          </mxGeometry>
        </mxCell>
        <mxCell id="pCkTTkV0WS3hA6v8b99D-90" value="" style="endArrow=none;html=1;rounded=0;" parent="WIyWlLk6GJQsqaUBKTNV-1" source="pCkTTkV0WS3hA6v8b99D-33" edge="1">
          <mxGeometry width="50" height="50" relative="1" as="geometry">
            <mxPoint x="890" y="560" as="sourcePoint" />
            <mxPoint x="1130" y="500" as="targetPoint" />
          </mxGeometry>
        </mxCell>
        <mxCell id="pCkTTkV0WS3hA6v8b99D-91" value="" style="endArrow=none;html=1;rounded=0;exitX=1;exitY=0.5;exitDx=0;exitDy=0;" parent="WIyWlLk6GJQsqaUBKTNV-1" source="pCkTTkV0WS3hA6v8b99D-32" edge="1">
          <mxGeometry width="50" height="50" relative="1" as="geometry">
            <mxPoint x="750" y="660" as="sourcePoint" />
            <mxPoint x="1130" y="380" as="targetPoint" />
          </mxGeometry>
        </mxCell>
        <mxCell id="pCkTTkV0WS3hA6v8b99D-93" value="YA" style="text;html=1;strokeColor=none;fillColor=none;align=center;verticalAlign=middle;whiteSpace=wrap;rounded=0;" parent="WIyWlLk6GJQsqaUBKTNV-1" vertex="1">
          <mxGeometry x="300" y="240" width="60" height="30" as="geometry" />
        </mxCell>
        <mxCell id="pCkTTkV0WS3hA6v8b99D-94" value="YA" style="text;html=1;strokeColor=none;fillColor=none;align=center;verticalAlign=middle;whiteSpace=wrap;rounded=0;" parent="WIyWlLk6GJQsqaUBKTNV-1" vertex="1">
          <mxGeometry x="302" y="350" width="60" height="30" as="geometry" />
        </mxCell>
        <mxCell id="pCkTTkV0WS3hA6v8b99D-95" value="YA" style="text;html=1;strokeColor=none;fillColor=none;align=center;verticalAlign=middle;whiteSpace=wrap;rounded=0;" parent="WIyWlLk6GJQsqaUBKTNV-1" vertex="1">
          <mxGeometry x="295" y="470" width="60" height="30" as="geometry" />
        </mxCell>
        <mxCell id="pCkTTkV0WS3hA6v8b99D-96" value="YA" style="text;html=1;strokeColor=none;fillColor=none;align=center;verticalAlign=middle;whiteSpace=wrap;rounded=0;" parent="WIyWlLk6GJQsqaUBKTNV-1" vertex="1">
          <mxGeometry x="294" y="595" width="60" height="30" as="geometry" />
        </mxCell>
        <mxCell id="pCkTTkV0WS3hA6v8b99D-97" value="YA" style="text;html=1;strokeColor=none;fillColor=none;align=center;verticalAlign=middle;whiteSpace=wrap;rounded=0;" parent="WIyWlLk6GJQsqaUBKTNV-1" vertex="1">
          <mxGeometry x="290" y="800" width="60" height="30" as="geometry" />
        </mxCell>
        <mxCell id="pCkTTkV0WS3hA6v8b99D-98" value="YA" style="text;html=1;strokeColor=none;fillColor=none;align=center;verticalAlign=middle;whiteSpace=wrap;rounded=0;" parent="WIyWlLk6GJQsqaUBKTNV-1" vertex="1">
          <mxGeometry x="290" y="930" width="60" height="30" as="geometry" />
        </mxCell>
        <mxCell id="pCkTTkV0WS3hA6v8b99D-99" value="YA" style="text;html=1;strokeColor=none;fillColor=none;align=center;verticalAlign=middle;whiteSpace=wrap;rounded=0;" parent="WIyWlLk6GJQsqaUBKTNV-1" vertex="1">
          <mxGeometry x="230" y="1400" width="60" height="30" as="geometry" />
        </mxCell>
        <mxCell id="pCkTTkV0WS3hA6v8b99D-100" value="TIDAK" style="text;html=1;strokeColor=none;fillColor=none;align=center;verticalAlign=middle;whiteSpace=wrap;rounded=0;" parent="WIyWlLk6GJQsqaUBKTNV-1" vertex="1">
          <mxGeometry x="110" y="1310" width="60" height="30" as="geometry" />
        </mxCell>
        <mxCell id="pCkTTkV0WS3hA6v8b99D-103" value="TIDAK" style="text;html=1;strokeColor=none;fillColor=none;align=center;verticalAlign=middle;whiteSpace=wrap;rounded=0;" parent="WIyWlLk6GJQsqaUBKTNV-1" vertex="1">
          <mxGeometry x="220" y="1070" width="60" height="30" as="geometry" />
        </mxCell>
        <mxCell id="pCkTTkV0WS3hA6v8b99D-104" value="TIDAK" style="text;html=1;strokeColor=none;fillColor=none;align=center;verticalAlign=middle;whiteSpace=wrap;rounded=0;" parent="WIyWlLk6GJQsqaUBKTNV-1" vertex="1">
          <mxGeometry x="230" y="880" width="60" height="30" as="geometry" />
        </mxCell>
        <mxCell id="pCkTTkV0WS3hA6v8b99D-105" value="TIDAK" style="text;html=1;strokeColor=none;fillColor=none;align=center;verticalAlign=middle;whiteSpace=wrap;rounded=0;" parent="WIyWlLk6GJQsqaUBKTNV-1" vertex="1">
          <mxGeometry x="220" y="700" width="60" height="30" as="geometry" />
        </mxCell>
        <mxCell id="pCkTTkV0WS3hA6v8b99D-106" value="TIDAK" style="text;html=1;strokeColor=none;fillColor=none;align=center;verticalAlign=middle;whiteSpace=wrap;rounded=0;" parent="WIyWlLk6GJQsqaUBKTNV-1" vertex="1">
          <mxGeometry x="230" y="550" width="60" height="30" as="geometry" />
        </mxCell>
        <mxCell id="pCkTTkV0WS3hA6v8b99D-107" value="TIDAK" style="text;html=1;strokeColor=none;fillColor=none;align=center;verticalAlign=middle;whiteSpace=wrap;rounded=0;" parent="WIyWlLk6GJQsqaUBKTNV-1" vertex="1">
          <mxGeometry x="230" y="420" width="60" height="30" as="geometry" />
        </mxCell>
        <mxCell id="pCkTTkV0WS3hA6v8b99D-108" value="TIDAK" style="text;html=1;strokeColor=none;fillColor=none;align=center;verticalAlign=middle;whiteSpace=wrap;rounded=0;" parent="WIyWlLk6GJQsqaUBKTNV-1" vertex="1">
          <mxGeometry x="230" y="310" width="60" height="30" as="geometry" />
        </mxCell>
        <mxCell id="AsaqWL7ThzWfmoiVNmKy-1" style="edgeStyle=orthogonalEdgeStyle;rounded=0;orthogonalLoop=1;jettySize=auto;html=1;" edge="1" parent="WIyWlLk6GJQsqaUBKTNV-1" source="AsaqWL7ThzWfmoiVNmKy-0" target="WIyWlLk6GJQsqaUBKTNV-3">
          <mxGeometry relative="1" as="geometry">
            <mxPoint x="221.25000000000023" y="70" as="targetPoint" />
          </mxGeometry>
        </mxCell>
        <mxCell id="AsaqWL7ThzWfmoiVNmKy-0" value="B&lt;br&gt;" style="shape=offPageConnector;whiteSpace=wrap;html=1;" vertex="1" parent="WIyWlLk6GJQsqaUBKTNV-1">
          <mxGeometry x="186.25" y="-10" width="70" height="60" as="geometry" />
        </mxCell>
      </root>
    </mxGraphModel>
  </diagram>
</mxfile>
